{"accessors":[{"bufferView":0,"componentType":5125,"count":78063,"type":"SCALAR"},{"bufferView":1,"componentType":5126,"count":78063,"max":[3.14292764663696,1.17549435082229e-38,2.83990359306335],"min":[0.95754474401474,-0.985474586486816,0.959532976150513],"type":"VEC3"},{"bufferView":2,"componentType":5126,"count":78063,"type":"VEC2"}],"asset":{"generator":"ply_to_gltf","version":"2.0"},"bufferViews":[{"buffer":0,"byteLength":312252,"target":34963},{"buffer":0,"byteLength":936756,"byteOffset":312252,"target":34962},{"buffer":0,"byteLength":624504,"byteOffset":1249008,"target":34962}],"buffers":[{"byteLength":1873512,"uri":"map_4eb6941f-eb9e-4f69-a3b9-0971917ef46e_densified_mesh_textured_lod0.bin"}],"images":[{"uri":"map_4eb6941f-eb9e-4f69-a3b9-0971917ef46e_densified_mesh_textured_4096.jpg"}],"materials":[{"pbrMetallicRoughness":{"baseColorTexture":{"index":0}}}],"meshes":[{"primitives":[{"attributes":{"POSITION":1,"TEXCOORD_0":2},"indices":0,"material":0,"mode":4}]}],"nodes":[{"mesh":0}],"samplers":[{"magFilter":9728,"minFilter":9728,"wrapR":10497,"wrapS":33071,"wrapT":33071}],"scene":0,"scenes":[{"nodes":[0]}],"textures":[{"sampler":0,"source":0}]}
